<?xml version="1.0" encoding="UTF-8"?>
<svg width="250px" height="250px" viewBox="0 0 250 250" version="1.1" xmlns="http://www.w3.org/2000/svg">
    <g stroke="none" stroke-width="1" fill="none" fill-rule="evenodd">
        <polygon fill="#2B2B2E" points="3.22974779e-15 0 250 0 250 250 3.22974779e-15 250"/>
        {content}
        <g transform="translate(100.000000, 25.000000)">
            <path d="M28.4172336,76.0613092 L28.4172336,115.468306 C28.4172336,117.562654 27.0966682,118.562921 25.4674611,117.67657 L3.0820612,105.45345 C1.27343099,104.238753 0.168153852,102.215679 0.117913832,100.042747 L0.117913832,61.5294118 C0.448061112,61.7937942 0.79255925,62.0222353 1.15859257,62.2226542 L28.4172336,76.0613092 Z" id="Path" fill="#765CD6"/>
            <path d="M50,2.13586795 L50,30.735603 C49.9638272,32.5460121 49.0238261,34.2244961 47.519849,35.192009 L33.737932,42.3529412 L33.7306605,42.3529412 L2.24773571,26.0007926 C2.20435294,25.9714967 2.16097017,25.9494468 2.11758124,25.9274593 C2.00188975,25.8688051 1.88619826,25.8322009 1.7705006,25.7955342 C1.69096347,25.780855 1.61142634,25.7588675 1.53911762,25.7515592 C1.46680889,25.73688 1.39450017,25.7369425 1.32219145,25.7369425 C1.10527144,25.7442508 0.895573677,25.7955342 0.700345053,25.8834842 C0.635264738,25.9201509 0.570190584,25.9494468 0.512344838,25.9934218 C0.512344838,25.9934218 0.512344838,26.0007926 0.497881861,26.0007926 L0.476190476,26.0227801 C1.38727176,24.3442961 3.158817,23.3767832 5.79806691,21.9402242 L47.519849,0.252172368 C48.8792579,-0.451461679 50,0.362120536 50,2.13586795 Z" id="Path" fill="#765CD6"/>
            <path d="M49.6417234,51.976194 L49.6417234,80.5579037 C49.6417234,82.3316833 48.5303925,83.1592389 47.1823989,82.4559728 L2.29044868,58.9237263 C1.27229801,58.2714876 0.5194381,57.2894757 0.117913832,56.1608148 C0.153763984,56.2194619 0.182444595,56.2781091 0.225464899,56.3293863 C0.254145509,56.3660486 0.282825509,56.4026484 0.318676272,56.4393107 C0.325846424,56.4539256 0.333016577,56.4612955 0.347356882,56.475973 C0.376036881,56.5052653 0.404718103,56.5419276 0.440568866,56.5712199 C0.476419629,56.6151897 0.5194381,56.644482 0.562456572,56.6811443 C0.626990389,56.725114 0.684350388,56.7691462 0.756051914,56.7984386 C1.17908725,57.0255948 1.71684258,57.0109798 2.29044868,56.7104991 L33.5090022,40.3529412 L33.5162127,40.3529412 L47.1823989,47.5057073 C48.6809571,48.4804117 49.6058543,50.1586945 49.6417234,51.976194 Z" id="Path" fill="#A08AEE"/>
            <path d="M35.4920635,41.3629219 L2.72205523,57.5819073 C2.11994323,57.8797806 1.55545723,57.8943337 1.11139875,57.6691018 C1.03613395,57.6399957 0.975923391,57.5963984 0.908188919,57.5528012 C0.863026189,57.5164495 0.817869874,57.4874053 0.780237474,57.443808 C0.742605074,57.4147638 0.712500436,57.3784121 0.682395157,57.3493679 C0.667342197,57.3348149 0.659815717,57.3275074 0.652289237,57.3129543 C0.614657478,57.2766646 0.584551557,57.2403129 0.554445637,57.2040231 C0.509287398,57.1531184 0.479181477,57.09503 0.441549718,57.0368796 C0.23833668,56.6881016 0.117913832,56.2375759 0.117913832,55.7143469 L0.117913832,27.0041894 C0.117913832,26.1467354 0.411443798,25.5072676 0.878080432,25.1657351 C0.885610761,25.1584896 0.893134675,25.151244 0.90065859,25.151244 C0.90065859,25.151244 0.908188919,25.1366909 0.915712833,25.1366909 C0.975923391,25.0930937 1.04366428,25.0639875 1.11139875,25.0276359 C1.314615,24.9404413 1.53287907,24.8896604 1.75867347,24.8823529 C1.83393827,24.8823529 1.90920307,24.8823529 1.98446788,24.8968441 C2.05972626,24.9041516 2.14252139,24.9259502 2.22531011,24.9404413 C2.34573122,24.976793 2.46615234,25.0131447 2.58657987,25.0712331 C2.63173618,25.0930317 2.6768925,25.1148923 2.72205523,25.1439365 L35.4920635,41.3629219 Z" id="Path" fill="#8B73E2"/>
        </g>
    </g>
</svg>
